<svg width="624" height="576" xmlns="http://www.w3.org/2000/svg">

 <g>
  <title>Layer 1</title>
  <path transform="rotate(-2.12353 310.022 227.76)" stroke="#000" id="svg_1" d="m310.02222,210.92822c15.5183,-38.32365 76.31952,0 0,49.27327c-76.31952,-49.27327 -15.5183,-87.59692 0,-49.27327z" fill="#A0D58A"/>
  <path transform="rotate(87.0066 359.687 262.795)" stroke="#000" id="svg_5" d="m359.68719,244.63604c15.25492,-41.34554 75.0242,0 0,53.15855c-75.0242,-53.15855 -15.25492,-94.50408 0,-53.15855z" fill="#A0D58A"/>
  <path transform="rotate(-93.7415 264.032 266.571)" id="svg_6" d="m264.03219,248.15304c15.46107,-41.93616 76.03805,0 0,53.91792c-76.03805,-53.91792 -15.46107,-95.85408 0,-53.91792z" stroke="#000" fill="#A0D58A"/>
  <path transform="rotate(178.877 311.662 303.761)" stroke="#000" id="svg_16" d="m311.6617,286.39609c15.03677,-39.5385 73.95135,0 0,50.83522c-73.95135,-50.83522 -15.03677,-90.37372 0,-50.83522z" fill="#A0D58A"/>
  <path id="svg_12" d="m292.75694,261.14765l5.35917,-7.19329l9.28167,-4.15335l10.71834,0l9.28167,4.15335l5.35917,7.19329l0,8.30671l-5.35917,7.19329l-9.28167,4.15335l-10.71834,0l-9.28167,-4.15335l-5.35917,-7.19329l0,-8.30671z" stroke="#000" fill="#FFFF91"/>
  <line id="svg_15" y2="269.8" x2="439.59998" y1="269.8" x1="438.59998" stroke="#000" fill="none"/>
 </g>
</svg>